# xmcd CD database file
#
# Track frame offsets:
#	182
#	10212
#	20980
#	32797
#	45230
#	56202
#	68015
#	79170
#	89440
#	99522
#	109622
#
# Disc length: 1586 seconds
#
# Revision: 0
# Processed by: cddbd v1.4PL0 Copyright (c) Steve Scherf et al.
# Submitted via: CDex 1.50
#
DISCID=8806300b
DTITLE=Conway Twitty - The Hits [Mercury]
DYEAR=1900
DGENRE=Country
TTITLE0=It's Only Makle Believe
TTITLE1=Walk On By
TTITLE2=What Am I Living For
TTITLE3=Danny Boy
TTITLE4=Mona Lisa
TTITLE5=Is A Bluebird Blue
TTITLE6=Unchained Melody
TTITLE7=Story Of My Love
TTITLE8=C'est Si Bon
TTITLE9=Lonely Blue Boy
TTITLE10=Live Fast, Love Hard, Die Young
EXTD=
EXTT0=
EXTT1=
EXTT2=
EXTT3=
EXTT4=
EXTT5=
EXTT6=
EXTT7=
EXTT8=
EXTT9=
EXTT10=
PLAYORDER=
